# Blender 4.3.2
# www.blender.org
o SolidePath
v 6.527640 -0.201298 -6.146619
v 6.527640 0.201298 -6.146619
v 6.527640 -0.201298 -7.586334
v 6.527640 0.201298 -7.586334
v 7.967355 -0.201298 -6.146619
v 7.967355 0.201298 -6.146619
v 7.967355 -0.201298 -7.586334
v 7.967355 0.201298 -7.586334
v 6.527640 -0.201298 -4.703965
v 6.527640 0.201298 -4.703965
v 7.967355 0.201298 -4.703965
v 7.967355 -0.201298 -4.703965
v 4.661952 -0.201298 -6.146619
v 4.661952 0.201298 -6.146619
v 4.661952 -0.201298 -4.703965
v 4.661952 0.201298 -4.703965
v 3.224721 -0.201298 -6.146619
v 3.224721 0.201298 -6.146619
v 3.224721 -0.201298 -4.703965
v 3.224721 0.201298 -4.703965
v 4.661952 -0.201298 -2.990044
v 4.661952 0.201298 -2.990044
v 3.224721 -0.201298 -2.990044
v 3.224721 0.201298 -2.990044
v 4.661952 -0.201298 -1.667491
v 4.661952 0.201298 -1.667491
v 3.224721 -0.201298 -1.667491
v 3.224721 0.201298 -1.667491
v 6.443349 -0.201298 -2.990044
v 6.443349 0.201298 -2.990044
v 6.443349 -0.201298 -1.667491
v 6.443349 0.201298 -1.667491
v 7.887361 -0.201298 -2.990044
v 7.887361 0.201298 -2.990044
v 7.887361 -0.201298 -1.667491
v 7.887361 0.201298 -1.667491
v 6.443349 -0.201298 0.275852
v 6.443349 0.201298 0.275852
v 7.887361 -0.201298 0.275852
v 7.887361 0.201298 0.275852
v 6.443349 -0.201298 1.584909
v 6.443349 0.201298 1.584909
v 7.887361 -0.201298 1.584909
v 7.887361 0.201298 1.584909
v 4.863258 -0.201298 0.275852
v 4.863258 0.201298 0.275852
v 4.863258 -0.201298 1.584909
v 4.863258 0.201298 1.584909
v 3.474353 -0.201298 0.275852
v 3.474353 0.201298 0.275852
v 3.474353 -0.201298 1.584909
v 3.474353 0.201298 1.584909
v 4.863258 -0.201298 3.009427
v 4.863258 0.201298 3.009427
v 3.474353 -0.201298 3.009427
v 3.474353 0.201298 3.009427
v 4.863258 -0.201298 4.330855
v 4.863258 0.201298 4.330855
v 3.474353 -0.201298 4.330855
v 3.474353 0.201298 4.330855
v 6.493957 -0.201298 3.009427
v 6.493957 0.201298 3.009427
v 6.493957 -0.201298 4.330855
v 6.493957 0.201298 4.330855
v 7.937219 -0.201298 3.009427
v 7.937219 0.201298 3.009427
v 7.937219 -0.201298 4.330855
v 7.937219 0.201298 4.330855
v 6.493957 -0.201298 6.027156
v 6.493957 0.201298 6.027156
v 7.937219 -0.201298 6.027156
v 7.937219 0.201298 6.027156
v 6.493957 -0.201298 7.339212
v 6.493957 0.201298 7.339212
v 7.937219 -0.201298 7.339212
v 7.937219 0.201298 7.339212
v 0.674051 -0.201298 6.027156
v 0.674051 0.201298 6.027156
v 0.674051 -0.201298 7.339212
v 0.674051 0.201298 7.339212
v -0.722352 -0.201298 6.027156
v -0.722352 0.201298 6.027156
v -0.722352 -0.201298 7.339212
v -0.722352 0.201298 7.339212
v 0.674051 -0.201298 5.324270
v 0.674051 0.201298 5.324270
v -0.722352 -0.201298 5.324270
v -0.722352 0.201298 5.324270
v 0.674051 -0.201298 4.049700
v 0.674051 0.201298 4.049700
v -0.722352 -0.201298 4.049700
v -0.722352 0.201298 4.049700
v 1.984823 -0.201298 5.324270
v 1.984823 0.201298 5.324270
v 1.984823 -0.201298 4.049700
v 1.984823 0.201298 4.049700
v 0.674051 -0.201298 3.029821
v 0.674051 0.201298 3.029821
v 1.984823 -0.201298 3.029821
v 1.984823 0.201298 3.029821
v 0.674051 -0.201298 1.755514
v 0.674051 0.201298 1.755514
v 1.984823 -0.201298 1.755514
v 1.984823 0.201298 1.755514
v -0.507168 -0.201298 3.029821
v -0.507168 0.201298 3.029821
v -0.507168 -0.201298 1.755514
v -0.507168 0.201298 1.755514
v 0.674051 -0.201298 -2.059372
v 0.674051 0.201298 -2.059372
v -0.507168 -0.201298 -2.059372
v -0.507168 0.201298 -2.059372
v 0.674051 -0.201298 -3.348932
v 0.674051 0.201298 -3.348932
v -0.507168 -0.201298 -3.348932
v -0.507168 0.201298 -3.348932
v 1.391718 -0.201298 -2.059372
v 1.391718 0.201298 -2.059372
v 1.391718 -0.201298 -3.348932
v 1.391718 0.201298 -3.348932
v 0.405169 -0.201298 1.755514
v 0.405169 0.201298 1.755514
v 0.405169 0.201298 3.029821
v 0.405169 -0.201298 3.029821
v 0.405169 -0.201298 -2.059372
v 0.405169 0.201298 -2.059372
v 0.405169 -0.201298 -3.348932
v 0.405169 0.201298 -3.348932
v 0.674051 -0.201298 -4.683078
v 0.674051 0.201298 -4.683078
v 0.405169 0.201298 -4.683078
v 1.391718 -0.201298 -4.683078
v 1.391718 0.201298 -4.683078
v 0.405169 -0.201298 -4.683078
v 0.674051 -0.201298 -5.986183
v 0.674051 0.201298 -5.986183
v 0.405169 0.201298 -5.986183
v 1.391718 -0.201298 -5.986183
v 1.391718 0.201298 -5.986183
v 0.405169 -0.201298 -5.986183
v -2.018343 0.201298 -4.683078
v -2.018343 0.201298 -5.986183
v -2.018343 -0.201298 -4.683078
v -2.018343 -0.201298 -5.986183
v -3.173320 0.201298 -4.683078
v -3.173320 0.201298 -5.986183
v -3.173320 -0.201298 -4.683078
v -3.173320 -0.201298 -5.986183
v -2.018343 -0.201298 3.086627
v -2.018343 0.201298 3.086627
v -3.173320 -0.201298 3.086627
v -3.173320 0.201298 3.086627
v -2.018343 -0.201298 4.552159
v -2.018343 0.201298 4.552159
v -3.173320 -0.201298 4.552159
v -3.173320 0.201298 4.552159
v -4.020124 -0.201298 3.086627
v -4.020124 0.201298 3.086627
v -4.020124 -0.201298 4.552159
v -4.020124 0.201298 4.552159
v -5.295722 -0.201298 3.086627
v -5.295722 0.201298 3.086627
v -5.295722 -0.201298 4.552159
v -5.295722 0.201298 4.552159
v -4.020124 -0.201298 7.315190
v -4.020124 0.201298 7.315190
v -5.295722 -0.201298 7.315190
v -5.295722 0.201298 7.315190
s 0
f 1 2 4 3
f 3 4 8 7
f 7 8 6 5
f 6 2 10 11
f 3 7 5 1
f 8 4 2 6
f 12 11 10 9
f 5 6 11 12
f 10 2 14 16
f 1 5 12 9
f 16 14 18 20
f 2 1 13 14
f 9 10 16 15
f 1 9 15 13
f 18 17 19 20
f 14 13 17 18
f 13 15 19 17
f 19 15 21 23
f 24 23 27 28
f 16 20 24 22
f 20 19 23 24
f 15 16 22 21
f 25 26 28 27
f 22 24 28 26
f 26 25 31 32
f 23 21 25 27
f 31 29 33 35
f 25 21 29 31
f 21 22 30 29
f 22 26 32 30
f 33 34 36 35
f 36 32 38 40
f 30 32 36 34
f 29 30 34 33
f 37 39 43 41
f 32 31 37 38
f 31 35 39 37
f 35 36 40 39
f 42 41 43 44
f 37 41 47 45
f 40 38 42 44
f 39 40 44 43
f 45 47 51 49
f 38 37 45 46
f 42 38 46 48
f 41 42 48 47
f 50 49 51 52
f 46 45 49 50
f 48 46 50 52
f 48 52 56 54
f 54 56 60 58
f 52 51 55 56
f 47 48 54 53
f 51 47 53 55
f 57 58 60 59
f 56 55 59 60
f 55 53 57 59
f 58 57 63 64
f 63 61 65 67
f 57 53 61 63
f 54 58 64 62
f 53 54 62 61
f 65 66 68 67
f 67 68 72 71
f 62 64 68 66
f 61 62 66 65
f 69 71 75 73
f 68 64 70 72
f 64 63 69 70
f 63 67 71 69
f 74 73 75 76
f 74 70 78 80
f 72 70 74 76
f 71 72 76 75
f 77 79 83 81
f 73 74 80 79
f 69 73 79 77
f 70 69 77 78
f 82 81 83 84
f 77 81 87 85
f 80 78 82 84
f 79 80 84 83
f 85 87 91 89
f 78 77 85 86
f 82 78 86 88
f 81 82 88 87
f 90 89 91 92
f 95 89 97 99
f 88 86 90 92
f 87 88 92 91
f 94 93 95 96
f 85 89 95 93
f 86 85 93 94
f 90 86 94 96
f 98 100 104 102
f 89 90 98 97
f 96 95 99 100
f 90 96 100 98
f 101 102 104 103
f 102 101 109 110
f 99 97 101 103
f 100 99 103 104
f 105 106 108 107
f 123 122 108 106
f 124 123 106 105
f 121 124 105 107
f 125 111 115 127
f 107 108 112 111
f 121 107 111 125
f 122 102 110 126
f 128 127 115 116
f 109 113 119 117
f 126 110 114 128
f 111 112 116 115
f 118 117 119 120
f 110 109 117 118
f 114 110 118 120
f 127 128 131 134
f 112 126 128 116
f 120 119 132 133
f 108 122 126 112
f 101 121 125 109
f 109 125 127 113
f 101 97 124 121
f 97 98 123 124
f 98 102 122 123
f 130 133 139 136
f 140 134 143 144
f 128 114 130 131
f 119 113 129 132
f 114 120 133 130
f 113 127 134 129
f 135 136 139 138
f 136 135 140 137
f 133 132 138 139
f 129 134 140 135
f 132 129 135 138
f 131 130 136 137
f 142 144 148 146
f 134 131 141 143
f 131 137 142 141
f 137 140 144 142
f 147 145 146 148
f 141 142 146 145
f 144 143 147 148
f 147 143 149 151
f 151 149 153 155
f 145 147 151 152
f 141 145 152 150
f 143 141 150 149
f 153 154 156 155
f 156 152 158 160
f 150 152 156 154
f 149 150 154 153
f 160 158 162 164
f 152 151 157 158
f 151 155 159 157
f 155 156 160 159
f 162 161 163 164
f 164 163 167 168
f 157 159 163 161
f 158 157 161 162
f 165 166 168 167
f 163 159 165 167
f 159 160 166 165
f 160 164 168 166
